<svg xmlns="http://www.w3.org/2000/svg" version="1.1" xmlns:xlink="http://www.w3.org/1999/xlink" width="147" height="147"><svg xmlns="http://www.w3.org/2000/svg" version="1.1" xmlns:xlink="http://www.w3.org/1999/xlink" width="147" height="147"><svg width="147" height="147" viewBox="0 0 147 147" fill="none" xmlns="http://www.w3.org/2000/svg">
<g clip-path="url(#clip0_63_6)">
<rect width="147" height="147" rx="30" fill="#1C85FE"></rect>
<path d="M60.8438 22.875C52.7853 22.875 46.2594 28.7252 44.6279 36.3223C34.7897 38.0856 27.0938 46.2924 27.0938 56.625C27.0938 57.6632 27.2091 58.5861 27.3574 59.5254C24.6383 63.5299 22.875 68.243 22.875 73.5C22.875 81.0806 26.6488 87.4581 31.9717 92.0889C31.5927 93.5885 31.3125 95.0881 31.3125 96.7031C31.3125 107.135 39.8654 115.688 50.2969 115.688C50.4122 115.688 50.4617 115.688 50.5605 115.688C53.016 120.45 57.2677 124.125 62.9531 124.125C67.073 124.125 70.8138 122.395 73.5 119.643C76.1862 122.395 79.927 124.125 84.0469 124.125C89.7323 124.125 93.984 120.45 96.4395 115.688C96.5383 115.688 96.5878 115.688 96.7031 115.688C106.607 115.688 114.732 107.975 115.556 98.2852H115.688C115.688 98.0215 115.572 97.7578 115.556 97.4941C115.572 97.2305 115.688 96.9668 115.688 96.7031C115.688 95.1376 115.127 93.8027 114.765 92.3525C120.236 87.7053 124.125 81.2124 124.125 73.5C124.125 68.243 122.362 63.5299 119.643 59.5254C119.791 58.5861 119.906 57.6632 119.906 56.625C119.906 46.2924 112.21 38.0856 102.372 36.3223C100.741 28.7252 94.2147 22.875 86.1562 22.875C81.097 22.875 76.5981 25.2316 73.5 28.8076C70.4019 25.2316 65.903 22.875 60.8438 22.875ZM60.8438 31.3125C65.5569 31.3125 69.2812 35.0369 69.2812 39.75V48.1875C69.2812 55.2242 63.6617 60.8438 56.625 60.8438V69.2812C61.4041 69.2812 65.7382 67.6333 69.2812 64.9307V109.359C69.2812 112.902 66.4962 115.688 62.9531 115.688C59.8055 115.688 57.2842 113.512 56.7568 110.546L55.9658 106.459L51.8789 107.118C51.1373 107.234 50.6759 107.25 50.2969 107.25C44.4302 107.25 39.75 102.57 39.75 96.7031C39.75 95.4012 39.9642 94.1818 40.4092 93.0117C40.4421 92.9128 40.5081 92.8469 40.541 92.748C41.8429 89.5016 44.6774 87.1285 48.1875 86.4199L46.4736 78.1143C42.0736 79.0042 38.2504 81.3442 35.5312 84.7061C32.8781 81.7397 31.3125 77.8176 31.3125 73.5C31.3125 69.5449 32.6638 66.0183 35.0039 63.085L36.3223 61.5029L35.9268 59.3936C35.696 58.4048 35.5312 57.5314 35.5312 56.625C35.5312 49.5883 41.1508 43.9688 48.1875 43.9688H52.4062V39.75C52.4062 35.0369 56.1306 31.3125 60.8438 31.3125ZM86.1562 31.3125C90.8694 31.3125 94.5938 35.0369 94.5938 39.75V43.9688H98.8125C105.849 43.9688 111.469 49.5883 111.469 56.625C111.469 57.5314 111.304 58.4048 111.073 59.3936L110.678 61.5029L111.996 63.085C114.336 66.0183 115.688 69.5449 115.688 73.5C115.688 78.5592 113.529 83.0746 110.019 86.1562C107.135 83.6019 103.46 81.9375 99.3398 81.9375C95.3518 81.9375 91.7593 83.3547 88.9248 85.7607L94.3301 92.2207C95.6979 91.0671 97.3788 90.375 99.3398 90.375C103.41 90.375 106.657 93.4237 107.118 97.3623C106.772 102.916 102.339 107.25 96.7031 107.25C96.3241 107.25 95.8627 107.234 95.1211 107.118L91.0342 106.459L90.2432 110.546C89.7158 113.512 87.1945 115.688 84.0469 115.688C80.5038 115.688 77.7188 112.902 77.7188 109.359V64.9307C81.2618 67.6333 85.5959 69.2812 90.375 69.2812V60.8438C83.3383 60.8438 77.7188 55.2242 77.7188 48.1875V39.75C77.7188 35.0369 81.4431 31.3125 86.1562 31.3125Z" fill="white"></path>
</g>
<defs>
<clipPath id="clip0_63_6">
<rect width="147" height="147" fill="white"></rect>
</clipPath>
</defs>
</svg></svg><style>@media (prefers-color-scheme: light) { :root { filter: none; } }
@media (prefers-color-scheme: dark) { :root { filter: none; } }
</style></svg>