<svg xmlns="http://www.w3.org/2000/svg" fill="none" viewBox="0 0 781 151"><g clip-path="url(#a)"><path fill="#fff" d="M220.296 122.024c-6.656 0-12.501-1.28-17.536-3.84-5.035-2.645-8.917-6.315-11.648-11.008-2.731-4.693-4.096-10.112-4.096-16.256V61.352c0-6.144 1.365-11.563 4.096-16.256s6.613-8.32 11.648-10.88c5.035-2.56 10.88-3.84 17.536-3.84 6.571 0 12.331 1.237 17.28 3.712 5.035 2.39 8.917 5.845 11.648 10.368 2.816 4.437 4.224 9.6 4.224 15.488 0 .768-.512 1.237-1.536 1.408l-14.976.896h-.256c-.853 0-1.28-.47-1.28-1.408 0-4.523-1.408-8.15-4.224-10.88-2.731-2.73-6.357-4.096-10.88-4.096-4.608 0-8.32 1.365-11.136 4.096-2.731 2.73-4.096 6.357-4.096 10.88v30.848c0 4.437 1.365 8.021 4.096 10.752 2.816 2.731 6.528 4.096 11.136 4.096 4.523 0 8.149-1.365 10.88-4.096 2.816-2.73 4.224-6.315 4.224-10.752 0-.939.512-1.408 1.536-1.408l14.976.64c.427 0 .768.128 1.024.384.341.256.512.555.512.896 0 5.888-1.408 11.093-4.224 15.616-2.731 4.523-6.613 8.021-11.648 10.496-4.949 2.475-10.709 3.712-17.28 3.712Zm72.886 0c-7.168 0-13.312-1.877-18.432-5.632-5.12-3.755-8.619-8.875-10.496-15.36-1.195-4.01-1.792-8.363-1.792-13.056 0-5.035.597-9.557 1.792-13.568 1.963-6.315 5.504-11.264 10.624-14.848 5.12-3.584 11.264-5.376 18.432-5.376 6.997 0 12.971 1.792 17.92 5.376 4.949 3.499 8.448 8.405 10.496 14.72 1.365 4.267 2.048 8.747 2.048 13.44 0 4.608-.597 8.917-1.792 12.928-1.877 6.656-5.376 11.904-10.496 15.744-5.035 3.755-11.136 5.632-18.304 5.632Zm0-15.488c2.816 0 5.205-.853 7.168-2.56s3.371-4.053 4.224-7.04c.683-2.73 1.024-5.717 1.024-8.96 0-3.584-.341-6.613-1.024-9.088-.939-2.901-2.389-5.163-4.352-6.784-1.963-1.621-4.352-2.432-7.168-2.432-2.901 0-5.333.81-7.296 2.432-1.877 1.621-3.243 3.883-4.096 6.784-.683 2.048-1.024 5.077-1.024 9.088 0 3.84.299 6.827.896 8.96.853 2.987 2.261 5.333 4.224 7.04 2.048 1.707 4.523 2.56 7.424 2.56Zm73.682-52.224c3.072 0 5.504.597 7.296 1.792.683.341.939.981.768 1.92l-2.688 14.592c-.085 1.024-.683 1.323-1.792.896-1.28-.427-2.773-.64-4.48-.64-.683 0-1.621.085-2.816.256-3.072.256-5.675 1.408-7.808 3.456-2.133 1.963-3.2 4.608-3.2 7.936v34.944c0 .427-.171.811-.512 1.152-.256.256-.597.384-1.024.384h-14.976a1.87 1.87 0 0 1-1.152-.384 1.87 1.87 0 0 1-.384-1.152v-62.72c0-.427.128-.768.384-1.024.341-.341.725-.512 1.152-.512h14.976c.427 0 .768.17 1.024.512.341.256.512.597.512 1.024v4.864c0 .256.085.427.256.512.171.085.299.043.384-.128 3.499-5.12 8.192-7.68 14.08-7.68Zm53.462 13.824c0 .427-.171.81-.512 1.152-.256.256-.597.384-1.024.384h-12.288c-.427 0-.64.213-.64.64v27.136c0 2.816.555 4.907 1.664 6.272 1.195 1.365 3.072 2.048 5.632 2.048h4.224c.427 0 .768.171 1.024.512.341.256.512.597.512 1.024v12.16c0 .939-.512 1.493-1.536 1.664-3.584.171-6.144.256-7.68.256-7.083 0-12.373-1.152-15.872-3.456-3.499-2.389-5.291-6.827-5.376-13.312V70.312c0-.427-.213-.64-.64-.64h-7.296a1.87 1.87 0 0 1-1.152-.384 1.872 1.872 0 0 1-.384-1.152V56.744c0-.427.128-.768.384-1.024.341-.341.725-.512 1.152-.512h7.296c.427 0 .64-.213.64-.64V39.336c0-.427.128-.768.384-1.024.341-.341.725-.512 1.152-.512h14.336c.427 0 .768.17 1.024.512.341.256.512.597.512 1.024v15.232c0 .427.213.64.64.64h12.288c.427 0 .768.17 1.024.512.341.256.512.597.512 1.024v11.392Zm66.95 13.184c.512 3.243.683 6.87.512 10.88-.085 1.024-.64 1.536-1.664 1.536h-39.552c-.512 0-.683.213-.512.64a22.9 22.9 0 0 0 1.408 5.12c2.219 4.779 6.741 7.168 13.568 7.168 5.461-.085 9.771-2.304 12.928-6.656.341-.512.725-.768 1.152-.768.256 0 .555.17.896.512l9.216 9.088c.427.427.64.811.64 1.152 0 .171-.171.512-.512 1.024-2.816 3.499-6.443 6.229-10.88 8.192-4.437 1.877-9.301 2.816-14.592 2.816-7.339 0-13.568-1.664-18.688-4.992-5.035-3.328-8.661-7.979-10.88-13.952-1.792-4.267-2.688-9.856-2.688-16.768 0-4.693.64-8.832 1.92-12.416 1.963-6.059 5.376-10.88 10.24-14.464 4.949-3.584 10.795-5.376 17.536-5.376 8.533 0 15.36 2.475 20.48 7.424 5.205 4.95 8.363 11.563 9.472 19.84Zm-29.824-11.648c-5.376 0-8.917 2.517-10.624 7.552-.341 1.11-.64 2.475-.896 4.096 0 .427.213.64.64.64h22.144c.512 0 .683-.213.512-.64-.427-2.475-.64-3.67-.64-3.584-.768-2.56-2.133-4.523-4.096-5.888-1.877-1.45-4.224-2.176-7.04-2.176ZM491.946 121c-.597 0-1.024-.171-1.28-.512-.171-.427-.085-.896.256-1.408l20.608-30.592a.639.639 0 0 0 0-.768l-20.608-30.592c-.171-.341-.256-.64-.256-.896 0-.683.427-1.024 1.28-1.024h16c.768 0 1.365.341 1.792 1.024l11.52 17.536c.341.512.64.512.896 0l11.52-17.536c.427-.683 1.024-1.024 1.792-1.024h17.152c.597 0 .981.213 1.152.64.171.341.085.768-.256 1.28l-20.48 30.592a1.188 1.188 0 0 0 0 .768l20.48 30.592c.171.256.256.555.256.896 0 .683-.384 1.024-1.152 1.024H536.49c-.768 0-1.365-.341-1.792-1.024l-11.52-17.536c-.256-.512-.512-.512-.768 0l-11.52 17.536c-.427.683-1.024 1.024-1.792 1.024h-17.152Z"/><path fill="#7D7D7D" d="M580.44 121V38.4h27.258c5.546 0 10.423.885 14.632 2.655 4.209 1.77 7.473 4.622 9.794 8.555 2.36 3.933 3.54 9.125 3.54 15.576 0 6.333-1.18 11.485-3.54 15.458-2.321 3.933-5.585 6.824-9.794 8.673-4.209 1.849-9.086 2.773-14.632 2.773H592.24V121h-11.8Zm11.8-38.94h13.806c6.018 0 10.522-1.357 13.511-4.071 3.029-2.753 4.543-6.982 4.543-12.685 0-5.743-1.436-9.99-4.307-12.744-2.832-2.753-7.414-4.13-13.747-4.13H592.24v33.63ZM644.427 121V38.4h11.21v34.102h42.008V38.4h11.21V121h-11.21V83.122h-42.008V121h-11.21Zm79.775 0V38.4h27.258c5.546 0 10.423.885 14.632 2.655 4.208 1.77 7.473 4.622 9.794 8.555 2.36 3.933 3.54 9.125 3.54 15.576 0 6.333-1.18 11.485-3.54 15.458-2.321 3.933-5.586 6.824-9.794 8.673-4.209 1.849-9.086 2.773-14.632 2.773h-15.458V121h-11.8Zm11.8-38.94h13.806c6.018 0 10.521-1.357 13.511-4.071 3.028-2.753 4.543-6.982 4.543-12.685 0-5.743-1.436-9.99-4.307-12.744-2.832-2.753-7.415-4.13-13.747-4.13h-13.806v33.63Z"/><rect width="147" height="147" x="2" y="2" fill="#1C85FE" rx="30"/><path fill="#fff" d="M62.844 24.875c-8.059 0-14.585 5.85-16.216 13.447-9.838 1.764-17.534 9.97-17.534 20.303 0 1.038.115 1.961.263 2.9-2.719 4.005-4.482 8.718-4.482 13.975 0 7.58 3.774 13.958 9.097 18.589-.38 1.5-.66 3-.66 4.614 0 10.432 8.553 18.985 18.985 18.985h.264c2.455 4.762 6.707 8.437 12.392 8.437 4.12 0 7.86-1.73 10.547-4.482 2.686 2.752 6.427 4.482 10.547 4.482 5.685 0 9.937-3.675 12.392-8.437h.264c9.904 0 18.029-7.713 18.853-17.403h.132c0-.264-.116-.527-.132-.79.016-.264.132-.528.132-.792 0-1.565-.561-2.9-.923-4.35 5.471-4.648 9.36-11.14 9.36-18.853 0-5.257-1.763-9.97-4.482-13.975.148-.939.263-1.862.263-2.9 0-10.333-7.696-18.54-17.534-20.303-1.631-7.597-8.157-13.447-16.216-13.447-5.059 0-9.558 2.357-12.656 5.933-3.098-3.576-7.597-5.933-12.656-5.933Zm0 8.438c4.713 0 8.437 3.724 8.437 8.437v8.438c0 7.036-5.62 12.656-12.656 12.656v8.437c4.78 0 9.113-1.648 12.656-4.35v44.428c0 3.543-2.785 6.329-6.328 6.329-3.148 0-5.669-2.176-6.196-5.142l-.791-4.087-4.087.659a9.546 9.546 0 0 1-1.582.132A10.494 10.494 0 0 1 41.75 98.703c0-1.302.214-2.521.66-3.691.032-.1.098-.165.131-.264 1.302-3.246 4.136-5.62 7.647-6.328l-1.714-8.306c-4.4.89-8.224 3.23-10.943 6.592-2.653-2.966-4.218-6.888-4.218-11.206 0-3.955 1.35-7.482 3.69-10.415l1.32-1.582-.396-2.11c-.231-.988-.396-1.862-.396-2.768 0-7.037 5.62-12.656 12.657-12.656h4.218V41.75c0-4.713 3.725-8.438 8.438-8.438Zm25.312 0c4.713 0 8.438 3.724 8.438 8.437v4.219h4.218c7.037 0 12.657 5.62 12.657 12.656 0 .906-.165 1.78-.396 2.769l-.395 2.109 1.318 1.582c2.34 2.933 3.692 6.46 3.692 10.415 0 5.06-2.159 9.575-5.669 12.656-2.884-2.554-6.559-4.219-10.679-4.219-3.988 0-7.58 1.418-10.415 3.824l5.405 6.46c1.368-1.154 3.049-1.846 5.01-1.846 4.07 0 7.317 3.049 7.778 6.987-.346 5.554-4.779 9.888-10.415 9.888-.379 0-.84-.016-1.582-.132l-4.087-.659-.79 4.087c-.528 2.966-3.05 5.142-6.197 5.142-3.543 0-6.328-2.786-6.328-6.329V66.931c3.543 2.702 7.877 4.35 12.656 4.35v-8.437a12.597 12.597 0 0 1-12.656-12.657V41.75c0-4.713 3.724-8.438 8.437-8.438Z"/></g><defs><clipPath id="a"><path fill="#fff" d="M0 0h781v151H0z"/></clipPath></defs></svg>